<?xml version="1.0" encoding="UTF-8"?>
<!DOCTYPE svg PUBLIC "-//W3C//DTD SVG 1.1//EN" "http://www.w3.org/Graphics/SVG/1.1/DTD/svg11.dtd">
<svg xmlns="http://www.w3.org/2000/svg" version="1.1" width="500px" height="500px" style="shape-rendering:geometricPrecision; text-rendering:geometricPrecision; image-rendering:optimizeQuality; fill-rule:evenodd; clip-rule:evenodd" xmlns:xlink="http://www.w3.org/1999/xlink">
<g><path style="opacity:1" fill="#5c5652" d="M 332.5,34.5 C 328.444,34.2225 324.444,33.5558 320.5,32.5C 317.756,33.4906 315.089,33.1573 312.5,31.5C 311.833,31.6667 311.167,31.8333 310.5,32C 311.696,32.6543 311.696,33.1543 310.5,33.5C 308.775,32.9851 307.108,32.3184 305.5,31.5C 289.423,29.9165 273.423,30.4165 257.5,33C 256.953,33.9246 256.287,34.7579 255.5,35.5C 255.167,34.8333 254.833,34.1667 254.5,33.5C 247.904,35.1662 241.238,36.8328 234.5,38.5C 252.452,31.9508 271.119,28.6175 290.5,28.5C 304.891,28.7463 318.891,30.7463 332.5,34.5 Z"/></g>
<g><path style="opacity:1" fill="#f5e1c7" d="M 268.5,36.5 C 316.531,38.1268 356.697,56.7934 389,92.5C 389.513,93.5266 390.013,94.5266 390.5,95.5C 389.923,98.5497 391.09,100.55 394,101.5C 394.619,104.032 395.619,106.365 397,108.5C 397.497,110.81 397.663,113.143 397.5,115.5C 396.833,114.5 396.167,113.5 395.5,112.5C 385.466,88.6404 367.466,78.4737 341.5,82C 309.082,94.4183 299.248,116.918 312,149.5C 318.323,160.001 327.156,167.334 338.5,171.5C 333.49,171.501 329.157,169.835 325.5,166.5C 324.575,167.357 323.908,168.357 323.5,169.5C 317.548,163.693 312.548,164.36 308.5,171.5C 303.102,178.404 297.102,184.904 290.5,191C 280.33,197.252 269.997,203.252 259.5,209C 241.514,226.561 238.68,246.394 251,268.5C 254.287,274.121 258.621,278.788 264,282.5C 264.483,283.448 264.649,284.448 264.5,285.5C 263.343,289.768 262.01,294.101 260.5,298.5C 260.453,300.038 261.12,301.038 262.5,301.5C 258.825,310.866 256.159,320.533 254.5,330.5C 252.089,330.137 250.589,331.137 250,333.5C 247.464,341.441 245.131,349.441 243,357.5C 241.125,354.412 239.792,351.079 239,347.5C 237.24,338.235 236.074,328.902 235.5,319.5C 235.667,300.164 235.5,280.83 235,261.5C 234.851,257.867 234.018,254.534 232.5,251.5C 231.058,240.116 226.058,230.616 217.5,223C 205.897,216.064 197.064,206.564 191,194.5C 190.333,193.167 190.333,191.833 191,190.5C 195.158,179.193 198.991,167.859 202.5,156.5C 221.97,179.375 244.304,182.542 269.5,166C 282.481,154.541 287.814,140.374 285.5,123.5C 284.522,114.215 280.856,106.215 274.5,99.5C 271.936,95.8831 268.603,93.2164 264.5,91.5C 240.787,78.8853 220.287,82.8853 203,103.5C 197.205,111.551 194.205,120.551 194,130.5C 191.033,127.599 187.533,125.599 183.5,124.5C 182.558,124.608 181.725,124.941 181,125.5C 177.013,137.375 175.513,136.708 176.5,123.5C 181.898,77.5934 207.231,49.4267 252.5,39C 257.792,37.8402 263.125,37.0068 268.5,36.5 Z"/></g>
<g><path style="opacity:1" fill="#dccaad" d="M 327.5,392.5 C 318.851,393.203 310.185,393.536 301.5,393.5C 297.267,393.461 293.267,392.795 289.5,391.5C 295.56,392.617 301.56,392.451 307.5,391C 332.852,384.493 355.185,372.493 374.5,355C 416.66,311.874 436.827,260.041 435,199.5C 431.629,166.788 420.962,136.788 403,109.5C 399.339,104.341 395.172,99.6744 390.5,95.5C 390.013,94.5266 389.513,93.5266 389,92.5C 356.697,56.7934 316.531,38.1268 268.5,36.5C 341.747,30.5405 398.58,58.2072 439,119.5C 469.672,174.976 472.672,231.976 448,290.5C 429.176,335.657 397.343,367.824 352.5,387C 344.354,389.773 336.021,391.606 327.5,392.5 Z"/></g>
<g><path style="opacity:1" fill="#463e38" d="M 43.5,62.5 C 45.1033,62.3118 46.4366,62.8118 47.5,64C 46.6198,65.3561 46.2865,66.8561 46.5,68.5C 47.8221,68.67 48.9887,68.3366 50,67.5C 50.472,62.4206 52.6387,58.2539 56.5,55C 57.7932,54.51 59.1266,54.3433 60.5,54.5C 60.9948,50.5401 59.3281,48.2068 55.5,47.5C 54.0937,47.0269 53.427,46.0269 53.5,44.5C 52.962,42.8828 52.6287,41.2161 52.5,39.5C 50.9397,39.5191 49.4397,39.8524 48,40.5C 42.709,44.8958 36.8757,48.3958 30.5,51C 31.6651,52.0836 32.9984,52.9169 34.5,53.5C 35.2432,52.0921 36.0766,50.7588 37,49.5C 36.3855,51.5395 36.5522,53.5395 37.5,55.5C 34.7471,54.9778 32.0804,54.1445 29.5,53C 28.4464,51.6124 28.2797,50.1124 29,48.5C 39.0271,46.473 45.0271,40.473 47,30.5C 48.7748,27.9557 50.6082,27.9557 52.5,30.5C 55.1573,40.3232 61.324,46.6565 71,49.5C 71.1626,51.3867 70.3293,52.8867 68.5,54C 59.9035,56.9294 54.4035,62.7627 52,71.5C 50.3333,74.1667 48.6667,74.1667 47,71.5C 45.7286,68.5156 44.562,65.5156 43.5,62.5 Z"/></g>
<g><path style="opacity:1" fill="#d6dc5c" d="M 53.5,44.5 C 53.427,46.0269 54.0937,47.0269 55.5,47.5C 56.4756,48.8149 57.4756,50.1482 58.5,51.5C 55.5,54.1667 52.5,56.8333 49.5,59.5C 46.8621,56.5256 44.1954,53.5256 41.5,50.5C 44.8542,47.9795 47.6876,44.9795 50,41.5C 51.0391,42.7101 52.2058,43.7101 53.5,44.5 Z"/></g>
<g><path style="opacity:1" fill="#403828" d="M 53.5,44.5 C 52.2058,43.7101 51.0391,42.7101 50,41.5C 47.6876,44.9795 44.8542,47.9795 41.5,50.5C 44.1954,53.5256 46.8621,56.5256 49.5,59.5C 52.5,56.8333 55.5,54.1667 58.5,51.5C 57.4756,50.1482 56.4756,48.8149 55.5,47.5C 59.3281,48.2068 60.9948,50.5401 60.5,54.5C 59.1266,54.3433 57.7932,54.51 56.5,55C 52.6387,58.2539 50.472,62.4206 50,67.5C 48.9887,68.3366 47.8221,68.67 46.5,68.5C 46.2865,66.8561 46.6198,65.3561 47.5,64C 46.4366,62.8118 45.1033,62.3118 43.5,62.5C 41.5293,60.1918 39.5293,57.8585 37.5,55.5C 36.5522,53.5395 36.3855,51.5395 37,49.5C 36.0766,50.7588 35.2432,52.0921 34.5,53.5C 32.9984,52.9169 31.6651,52.0836 30.5,51C 36.8757,48.3958 42.709,44.8958 48,40.5C 49.4397,39.8524 50.9397,39.5191 52.5,39.5C 52.6287,41.2161 52.962,42.8828 53.5,44.5 Z"/></g>
<g><path style="opacity:1" fill="#3f3a1e" d="M 101.5,71.5 C 98.0392,68.576 95.0392,65.2426 92.5,61.5C 90.547,65.4479 87.8803,68.7812 84.5,71.5C 84.3862,69.2821 83.7196,67.2821 82.5,65.5C 87.9223,67.3859 90.5889,65.3859 90.5,59.5C 94.1068,59.3785 96.2734,61.0452 97,64.5C 100.057,63.1477 100.89,63.981 99.5,67C 100.414,68.4064 101.08,69.9064 101.5,71.5 Z"/></g>
<g><path style="opacity:1" fill="#433c34" d="M 101.5,90.5 C 100.609,89.7387 99.9424,88.7387 99.5,87.5C 101.827,84.839 104.16,82.1723 106.5,79.5C 106.918,78.7784 107.584,78.2784 108.5,78C 105.669,76.3343 103.336,74.1676 101.5,71.5C 101.08,69.9064 100.414,68.4064 99.5,67C 100.89,63.981 100.057,63.1477 97,64.5C 96.2734,61.0452 94.1068,59.3785 90.5,59.5C 90.5889,65.3859 87.9223,67.3859 82.5,65.5C 86.4738,60.9766 88.6405,55.6432 89,49.5C 91,46.8333 93,46.8333 95,49.5C 98.0754,63.2422 106.409,71.5756 120,74.5C 120.798,76.2588 120.631,77.9255 119.5,79.5C 112.837,82.1609 106.837,85.8275 101.5,90.5 Z"/></g>
<g><path style="opacity:1" fill="#433c35" d="M 82.5,65.5 C 83.7196,67.2821 84.3862,69.2821 84.5,71.5C 84.1667,71.5 83.8333,71.5 83.5,71.5C 82.0695,71.5792 80.7362,71.2458 79.5,70.5C 78.5713,71.6888 78.238,73.0222 78.5,74.5C 74.8388,74.3501 73.8388,75.8501 75.5,79C 77.0249,80.0086 78.6916,80.5086 80.5,80.5C 80.5,81.8333 80.5,83.1667 80.5,84.5C 82.8583,84.2525 84.8583,84.9192 86.5,86.5C 87.9063,86.9731 88.573,87.9731 88.5,89.5C 88.0101,91.9484 88.8434,93.615 91,94.5C 94.3419,92.7455 97.8419,91.4122 101.5,90.5C 97.6076,95.4503 94.9409,100.95 93.5,107C 92.1667,107.667 90.8333,107.667 89.5,107C 87.7102,97.8813 83.3768,90.2146 76.5,84C 72.8047,81.6509 68.8047,80.1509 64.5,79.5C 63.1667,77.8333 63.1667,76.1667 64.5,74.5C 71.3537,73.0732 77.3537,70.0732 82.5,65.5 Z"/></g>
<g><path style="opacity:1" fill="#3e391d" d="M 83.5,71.5 C 81.9408,73.6243 79.9408,75.291 77.5,76.5C 81.2278,79.2253 84.2278,82.5586 86.5,86.5C 84.8583,84.9192 82.8583,84.2525 80.5,84.5C 80.5,83.1667 80.5,81.8333 80.5,80.5C 78.6916,80.5086 77.0249,80.0086 75.5,79C 73.8388,75.8501 74.8388,74.3501 78.5,74.5C 78.238,73.0222 78.5713,71.6888 79.5,70.5C 80.7362,71.2458 82.0695,71.5792 83.5,71.5 Z"/></g>
<g><path style="opacity:1" fill="#d4db5c" d="M 101.5,71.5 C 103.336,74.1676 105.669,76.3343 108.5,78C 107.584,78.2784 106.918,78.7784 106.5,79.5C 100.78,82.3806 96.1138,86.5473 92.5,92C 90.9176,91.8071 89.5843,90.9738 88.5,89.5C 88.573,87.9731 87.9063,86.9731 86.5,86.5C 84.2278,82.5586 81.2278,79.2253 77.5,76.5C 79.9408,75.291 81.9408,73.6243 83.5,71.5C 83.8333,71.5 84.1667,71.5 84.5,71.5C 87.8803,68.7812 90.547,65.4479 92.5,61.5C 95.0392,65.2426 98.0392,68.576 101.5,71.5 Z"/></g>
<g><path style="opacity:1" fill="#423b21" d="M 106.5,79.5 C 104.16,82.1723 101.827,84.839 99.5,87.5C 99.9424,88.7387 100.609,89.7387 101.5,90.5C 97.8419,91.4122 94.3419,92.7455 91,94.5C 88.8434,93.615 88.0101,91.9484 88.5,89.5C 89.5843,90.9738 90.9176,91.8071 92.5,92C 96.1138,86.5473 100.78,82.3806 106.5,79.5 Z"/></g>
<g><path style="opacity:1" fill="#433b31" d="M 47.5,81.5 C 49.7224,81.178 51.5557,81.8446 53,83.5C 55.2022,92.3689 60.7022,97.8689 69.5,100C 70.3567,100.689 71.0233,101.522 71.5,102.5C 65.6156,106.203 60.1156,110.536 55,115.5C 53.8035,118.089 52.8035,120.756 52,123.5C 49.9891,126.092 48.1558,125.925 46.5,123C 44.5537,113.389 38.887,107.389 29.5,105C 28.1667,103.333 28.1667,101.667 29.5,100C 39.7671,97.9006 45.7671,91.734 47.5,81.5 Z"/></g>
<g><path style="opacity:1" fill="#d1d75f" d="M 49.5,93.5 C 52.3683,96.6879 55.3683,99.8546 58.5,103C 55.6511,106.016 52.6511,108.85 49.5,111.5C 46.8621,108.526 44.1954,105.526 41.5,102.5C 44.874,100.126 47.5407,97.1261 49.5,93.5 Z"/></g>
<g><path style="opacity:1" fill="#8ac4db" d="M 80.5,234.5 C 78.1809,224.217 74.5142,214.55 69.5,205.5C 70.4959,205.586 71.3292,205.252 72,204.5C 72.6667,202.833 72.6667,201.167 72,199.5C 65.8494,184.55 61.016,169.216 57.5,153.5C 56.8257,145.018 59.8257,138.185 66.5,133C 67.5,132.333 68.5,132.333 69.5,133C 88.1296,172.401 106.463,211.901 124.5,251.5C 118.06,264.713 111.893,278.047 106,291.5C 98.8165,272.955 91.8165,254.289 85,235.5C 83.6439,234.62 82.1439,234.286 80.5,234.5 Z"/></g>
<g><path style="opacity:1" fill="#ee6c7a" d="M 325.5,185.5 C 328.822,198.138 331.489,210.804 333.5,223.5C 333.906,234.564 333.406,245.564 332,256.5C 328.636,264.577 323.803,271.577 317.5,277.5C 312.966,279.845 308.3,282.011 303.5,284C 287.735,287.434 273.901,283.934 262,273.5C 247.941,257.18 245.941,239.514 256,220.5C 260.526,215.494 265.693,211.327 271.5,208C 284.306,202.531 295.472,194.698 305,184.5C 308.55,180.617 311.717,176.451 314.5,172C 316.367,171.289 317.867,171.789 319,173.5C 321.464,177.434 323.631,181.434 325.5,185.5 Z"/></g>
<g><path style="opacity:1" fill="#43322a" d="M 325.5,185.5 C 323.631,181.434 321.464,177.434 319,173.5C 317.867,171.789 316.367,171.289 314.5,172C 311.717,176.451 308.55,180.617 305,184.5C 295.472,194.698 284.306,202.531 271.5,208C 265.693,211.327 260.526,215.494 256,220.5C 245.941,239.514 247.941,257.18 262,273.5C 273.901,283.934 287.735,287.434 303.5,284C 308.3,282.011 312.966,279.845 317.5,277.5C 317.721,278.735 318.388,279.735 319.5,280.5C 318.637,281.726 318.637,283.06 319.5,284.5C 316.921,284.394 314.588,285.061 312.5,286.5C 307.095,285.555 301.762,286.222 296.5,288.5C 292.377,287.563 288.211,286.896 284,286.5C 282.019,286.629 280.353,287.296 279,288.5C 278.337,284.655 276.004,282.655 272,282.5C 268.545,282.986 266.045,283.986 264.5,285.5C 264.649,284.448 264.483,283.448 264,282.5C 258.621,278.788 254.287,274.121 251,268.5C 238.68,246.394 241.514,226.561 259.5,209C 269.997,203.252 280.33,197.252 290.5,191C 297.102,184.904 303.102,178.404 308.5,171.5C 309.151,172.091 309.818,172.757 310.5,173.5C 312.817,169.91 316.151,168.577 320.5,169.5C 322.717,174.616 324.384,179.949 325.5,185.5 Z"/></g>
<g><path style="opacity:1" fill="#552f2b" d="M 325.5,185.5 C 326.15,185.804 326.817,186.137 327.5,186.5C 331.019,198.558 333.019,210.891 333.5,223.5C 331.489,210.804 328.822,198.138 325.5,185.5 Z"/></g>
<g><path style="opacity:0.757" fill="#716d69" d="M 467.5,181.5 C 468.871,186.272 469.704,191.272 470,196.5C 470.826,207.674 470.659,218.674 469.5,229.5C 469.832,213.446 469.165,197.446 467.5,181.5 Z"/></g>
<g><path style="opacity:1" fill="#3e3934" d="M 204.5,148.5 C 204.307,151.308 203.64,153.975 202.5,156.5C 198.991,167.859 195.158,179.193 191,190.5C 190.333,191.833 190.333,193.167 191,194.5C 197.064,206.564 205.897,216.064 217.5,223C 226.058,230.616 231.058,240.116 232.5,251.5C 231.679,254.641 231.179,257.975 231,261.5C 230.138,259.913 229.471,258.246 229,256.5C 228.51,257.793 228.343,259.127 228.5,260.5C 227.387,243.778 219.721,230.945 205.5,222C 198.926,216.096 193.092,209.596 188,202.5C 176.495,235.017 164.995,267.517 153.5,300C 160.629,315.091 167.629,330.258 174.5,345.5C 171.913,348.802 168.58,351.136 164.5,352.5C 164.196,351.85 163.863,351.183 163.5,350.5C 169.882,348.33 169.882,347.497 163.5,348C 159.78,350.268 155.78,351.934 151.5,353C 149.851,355.495 147.517,356.995 144.5,357.5C 143.749,358.376 143.249,359.376 143,360.5C 142.107,359.919 141.107,359.585 140,359.5C 137.411,360.986 134.577,361.653 131.5,361.5C 131.785,359.712 131.452,358.045 130.5,356.5C 128.783,357.668 128.116,359.335 128.5,361.5C 126.94,361.519 125.44,361.852 124,362.5C 117.21,358.485 110.043,356.485 102.5,356.5C 100.5,356.167 98.5,355.833 96.5,355.5C 94.3503,361.794 91.6836,367.794 88.5,373.5C 88.2504,372.078 87.417,371.078 86,370.5C 85.5532,373.975 84.7199,377.309 83.5,380.5C 79.2147,379.705 74.8814,379.372 70.5,379.5C 73.6893,378.834 77.0227,378.167 80.5,377.5C 84.1667,369.5 87.8333,361.5 91.5,353.5C 89.0817,351.205 86.2484,349.538 83,348.5C 82.3333,346.5 82.3333,344.5 83,342.5C 89.4443,328.612 95.611,314.612 101.5,300.5C 94.4336,280.134 87.267,259.801 80,239.5C 79.3603,237.735 79.5269,236.068 80.5,234.5C 82.1439,234.286 83.6439,234.62 85,235.5C 91.8165,254.289 98.8165,272.955 106,291.5C 111.893,278.047 118.06,264.713 124.5,251.5C 106.463,211.901 88.1296,172.401 69.5,133C 68.5,132.333 67.5,132.333 66.5,133C 59.8257,138.185 56.8257,145.018 57.5,153.5C 61.016,169.216 65.8494,184.55 72,199.5C 72.6667,201.167 72.6667,202.833 72,204.5C 71.3292,205.252 70.4959,205.586 69.5,205.5C 67.665,204.878 66.4983,203.544 66,201.5C 59.9209,185.431 54.7542,169.097 50.5,152.5C 51.4083,139.118 57.9083,129.785 70,124.5C 72.9432,126.355 74.9432,129.021 76,132.5C 92.9098,169.318 110.076,205.985 127.5,242.5C 136.219,224.675 144.552,206.675 152.5,188.5C 154.297,187.27 156.297,186.604 158.5,186.5C 160.177,182.625 161.677,178.625 163,174.5C 163.383,175.056 163.883,175.389 164.5,175.5C 139.409,231.601 114.409,287.767 89.5,344C 90.444,345.477 91.7774,346.477 93.5,347C 104.051,351.776 114.718,356.276 125.5,360.5C 133.084,342.582 139.584,324.249 145,305.5C 162.208,256.876 179.208,208.209 196,159.5C 196.499,154.511 196.666,149.511 196.5,144.5C 195.901,141.037 194.901,137.704 193.5,134.5C 194.789,130.158 196.289,125.825 198,121.5C 198.333,126.833 198.667,132.167 199,137.5C 200.565,141.402 202.398,145.069 204.5,148.5 Z"/></g>
<g><path style="opacity:1" fill="#8ac4db" d="M 196.5,144.5 C 196.666,149.511 196.499,154.511 196,159.5C 179.208,208.209 162.208,256.876 145,305.5C 139.584,324.249 133.084,342.582 125.5,360.5C 114.718,356.276 104.051,351.776 93.5,347C 91.7774,346.477 90.444,345.477 89.5,344C 114.409,287.767 139.409,231.601 164.5,175.5C 171.506,160.822 178.506,146.155 185.5,131.5C 190.317,134.974 193.983,139.307 196.5,144.5 Z"/></g>
<g><path style="opacity:0.667" fill="#67625d" d="M 469.5,229.5 C 469.336,238.148 468.002,246.481 465.5,254.5C 465.481,252.94 465.148,251.44 464.5,250C 466.977,243.263 468.643,236.43 469.5,229.5 Z"/></g>
<g><path style="opacity:1" fill="#f5e2c7" d="M 390.5,95.5 C 395.172,99.6744 399.339,104.341 403,109.5C 420.962,136.788 431.629,166.788 435,199.5C 436.827,260.041 416.66,311.874 374.5,355C 355.185,372.493 332.852,384.493 307.5,391C 301.56,392.451 295.56,392.617 289.5,391.5C 281.026,390.731 273.193,388.064 266,383.5C 267.891,373.649 270.725,363.982 274.5,354.5C 293.075,371.973 313.408,374.14 335.5,361C 339,357.5 342.5,354 346,350.5C 348.452,345.932 350.618,341.265 352.5,336.5C 353.268,335.737 353.768,334.737 354,333.5C 354.821,326.654 354.654,319.987 353.5,313.5C 350.638,302.276 344.638,293.109 335.5,286C 331.628,283.565 327.628,281.398 323.5,279.5C 329.801,273.582 334.634,266.582 338,258.5C 356.654,282.563 379.154,286.729 405.5,271C 423.669,254.487 427.835,234.987 418,212.5C 403.689,191.043 384.189,184.209 359.5,192C 350.456,196.543 343.122,203.043 337.5,211.5C 335.282,196.605 330.615,182.605 323.5,169.5C 323.908,168.357 324.575,167.357 325.5,166.5C 329.157,169.835 333.49,171.501 338.5,171.5C 363.102,176.358 381.435,168.025 393.5,146.5C 394.978,146.762 396.311,146.429 397.5,145.5C 398.785,135.729 398.785,125.729 397.5,115.5C 397.663,113.143 397.497,110.81 397,108.5C 395.619,106.365 394.619,104.032 394,101.5C 391.09,100.55 389.923,98.5497 390.5,95.5 Z"/></g>
<g><path style="opacity:1" fill="#3e332a" d="M 323.5,169.5 C 330.615,182.605 335.282,196.605 337.5,211.5C 343.122,203.043 350.456,196.543 359.5,192C 384.189,184.209 403.689,191.043 418,212.5C 427.835,234.987 423.669,254.487 405.5,271C 379.154,286.729 356.654,282.563 338,258.5C 334.634,266.582 329.801,273.582 323.5,279.5C 327.628,281.398 331.628,283.565 335.5,286C 344.638,293.109 350.638,302.276 353.5,313.5C 353.691,321.201 353.358,328.868 352.5,336.5C 350.618,341.265 348.452,345.932 346,350.5C 342.5,354 339,357.5 335.5,361C 313.408,374.14 293.075,371.973 274.5,354.5C 270.725,363.982 267.891,373.649 266,383.5C 273.193,388.064 281.026,390.731 289.5,391.5C 293.267,392.795 297.267,393.461 301.5,393.5C 310.011,394.649 318.677,394.649 327.5,393.5C 323.506,394.373 323.506,395.54 327.5,397C 326.584,397.278 325.918,397.778 325.5,398.5C 325.167,398.5 324.833,398.5 324.5,398.5C 318.491,398.666 312.491,398.499 306.5,398C 308.935,396.997 308.602,396.497 305.5,396.5C 302.393,398.161 299.56,397.827 297,395.5C 293.641,396.167 290.308,395.834 287,394.5C 284.162,395.675 281.329,395.509 278.5,394C 279.833,393.333 279.833,392.667 278.5,392C 275.518,391.502 272.518,391.335 269.5,391.5C 267.5,391.167 265.5,390.833 263.5,390.5C 262.732,391.263 262.232,392.263 262,393.5C 261.667,392.833 261.333,392.167 261,391.5C 260.801,393.402 259.967,394.902 258.5,396C 259.428,396.388 260.095,397.055 260.5,398C 257.916,401.997 255.249,405.83 252.5,409.5C 258.142,390.268 263.475,370.934 268.5,351.5C 273.539,335.661 278.206,319.661 282.5,303.5C 284.997,299.667 286.33,295.333 286.5,290.5C 280.473,290.334 274.807,289.001 269.5,286.5C 268.038,290.724 266.872,295.057 266,299.5C 265.184,300.823 264.017,301.489 262.5,301.5C 261.12,301.038 260.453,300.038 260.5,298.5C 262.01,294.101 263.343,289.768 264.5,285.5C 266.045,283.986 268.545,282.986 272,282.5C 276.004,282.655 278.337,284.655 279,288.5C 280.353,287.296 282.019,286.629 284,286.5C 288.211,286.896 292.377,287.563 296.5,288.5C 301.762,286.222 307.095,285.555 312.5,286.5C 306.247,289.73 299.58,291.397 292.5,291.5C 287.977,307.904 283.144,324.237 278,340.5C 277.005,343.126 276.672,345.793 277,348.5C 293.981,366.085 312.814,368.251 333.5,355C 346.269,344.029 351.103,330.196 348,313.5C 342.956,299.29 333.456,289.624 319.5,284.5C 318.637,283.06 318.637,281.726 319.5,280.5C 318.388,279.735 317.721,278.735 317.5,277.5C 323.803,271.577 328.636,264.577 332,256.5C 333.406,245.564 333.906,234.564 333.5,223.5C 333.019,210.891 331.019,198.558 327.5,186.5C 326.817,186.137 326.15,185.804 325.5,185.5C 324.384,179.949 322.717,174.616 320.5,169.5C 316.151,168.577 312.817,169.91 310.5,173.5C 309.818,172.757 309.151,172.091 308.5,171.5C 312.548,164.36 317.548,163.693 323.5,169.5 Z"/></g>
<g><path style="opacity:1" fill="#373a3b" d="M 354.5,201.5 C 347.748,206.322 342.915,212.655 340,220.5C 334.179,242.323 340.679,259.156 359.5,271C 368.608,274.457 377.941,275.29 387.5,273.5C 385.484,274.588 383.317,275.588 381,276.5C 375.174,275.896 369.34,275.229 363.5,274.5C 358.199,271.514 352.865,268.514 347.5,265.5C 344.336,261.842 341.67,257.842 339.5,253.5C 338.833,246.167 338.167,238.833 337.5,231.5C 336.009,230.652 335.342,229.319 335.5,227.5C 337.078,222.709 337.911,217.709 338,212.5C 338.333,213.167 338.667,213.833 339,214.5C 342.525,210.797 345.692,206.797 348.5,202.5C 350.409,201.652 352.409,201.318 354.5,201.5 Z"/></g>
<g><path style="opacity:1" fill="#8ac1d7" d="M 387.5,273.5 C 377.941,275.29 368.608,274.457 359.5,271C 340.679,259.156 334.179,242.323 340,220.5C 342.915,212.655 347.748,206.322 354.5,201.5C 379.319,188.33 399.152,193.663 414,217.5C 422.295,244.505 413.462,263.172 387.5,273.5 Z"/></g>
<g><path style="opacity:1" fill="#86786f" d="M 319.5,284.5 C 333.456,289.624 342.956,299.29 348,313.5C 351.103,330.196 346.269,344.029 333.5,355C 312.814,368.251 293.981,366.085 277,348.5C 276.672,345.793 277.005,343.126 278,340.5C 283.144,324.237 287.977,307.904 292.5,291.5C 299.58,291.397 306.247,289.73 312.5,286.5C 314.588,285.061 316.921,284.394 319.5,284.5 Z"/></g>
<g><path style="opacity:1" fill="#3c3531" d="M 123.5,287.5 C 137.705,286.203 143.872,292.537 142,306.5C 137.847,313.654 131.68,316.487 123.5,315C 113.868,308.953 112.035,301.119 118,291.5C 120.015,290.303 121.849,288.97 123.5,287.5 Z"/></g>
<g><path style="opacity:1" fill="#d76c75" d="M 124.5,293.5 C 128.839,292.846 132.673,293.846 136,296.5C 138.721,304.05 136.054,308.383 128,309.5C 121.609,308.069 119.276,304.069 121,297.5C 122.376,296.295 123.542,294.962 124.5,293.5 Z"/></g>
<g><path style="opacity:1" fill="#f16b7a" d="M 125.5,294.5 C 129.192,293.971 132.358,294.971 135,297.5C 135.82,299.728 135.487,301.728 134,303.5C 133.51,302.207 133.343,300.873 133.5,299.5C 132.022,299.238 130.689,299.571 129.5,300.5C 134.213,306.672 132.546,308.838 124.5,307C 123.191,305.249 123.525,303.749 125.5,302.5C 124.115,301.449 123.115,300.116 122.5,298.5C 123.524,297.148 124.524,295.815 125.5,294.5 Z"/></g>
<g><path style="opacity:1" fill="#7e6e5f" d="M 232.5,251.5 C 234.018,254.534 234.851,257.867 235,261.5C 235.5,280.83 235.667,300.164 235.5,319.5C 235.022,296.948 234.022,274.281 232.5,251.5 Z"/></g>
<g><path style="opacity:1" fill="#3e352b" d="M 232.5,251.5 C 234.022,274.281 235.022,296.948 235.5,319.5C 236.074,328.902 237.24,338.235 239,347.5C 239.792,351.079 241.125,354.412 243,357.5C 245.131,349.441 247.464,341.441 250,333.5C 250.589,331.137 252.089,330.137 254.5,330.5C 255.537,332.738 255.703,335.071 255,337.5C 250.662,350.348 246.828,363.348 243.5,376.5C 239.874,386.614 236.874,396.948 234.5,407.5C 231.192,414.766 228.858,422.433 227.5,430.5C 225.39,434.502 224.057,438.835 223.5,443.5C 222.795,446.354 221.795,449.021 220.5,451.5C 220.277,449.658 219.943,447.825 219.5,446C 222.761,434.297 223.094,422.464 220.5,410.5C 221.269,407.885 221.603,405.219 221.5,402.5C 222.674,403.514 223.34,404.847 223.5,406.5C 225.167,417.167 226.833,417.167 228.5,406.5C 232.057,393.327 235.723,380.16 239.5,367C 237.68,361.865 236.013,356.699 234.5,351.5C 234.725,346.952 234.059,342.618 232.5,338.5C 233.171,331.523 233.004,324.523 232,317.5C 231.667,317.833 231.333,318.167 231,318.5C 230.667,303.5 230.333,288.5 230,273.5C 229.819,270.305 229.319,267.305 228.5,264.5C 228.5,263.167 228.5,261.833 228.5,260.5C 228.343,259.127 228.51,257.793 229,256.5C 229.471,258.246 230.138,259.913 231,261.5C 231.179,257.975 231.679,254.641 232.5,251.5 Z"/></g>
<g><path style="opacity:1" fill="#7e7060" d="M 353.5,313.5 C 354.654,319.987 354.821,326.654 354,333.5C 353.768,334.737 353.268,335.737 352.5,336.5C 353.358,328.868 353.691,321.201 353.5,313.5 Z"/></g>
<g><path style="opacity:1" fill="#65605c" d="M 228.5,264.5 C 229.319,267.305 229.819,270.305 230,273.5C 230.333,288.5 230.667,303.5 231,318.5C 231.333,318.167 231.667,317.833 232,317.5C 233.004,324.523 233.171,331.523 232.5,338.5C 234.059,342.618 234.725,346.952 234.5,351.5C 232.049,344.492 230.549,337.159 230,329.5C 229.037,307.843 228.537,286.176 228.5,264.5 Z"/></g>
<g><path style="opacity:1" fill="#8bc4da" d="M 149.5,309.5 C 156.004,320.006 161.671,331.172 166.5,343C 164.373,344.902 162.04,346.569 159.5,348C 150.807,351.43 142.307,355.264 134,359.5C 138.853,342.761 144.02,326.094 149.5,309.5 Z"/></g>
<g><path style="opacity:0.998" fill="#4c4642" d="M 452.5,294.5 C 442.602,318.314 428.269,338.981 409.5,356.5C 409.586,355.504 409.252,354.671 408.5,354C 414.248,350.54 418.414,345.706 421,339.5C 421.667,338.167 422.333,338.167 423,339.5C 423.552,336.803 425.052,334.803 427.5,333.5C 429.621,328.576 432.121,323.91 435,319.5C 435.308,320.308 435.808,320.975 436.5,321.5C 438.054,315.777 441.054,310.944 445.5,307C 445.167,306.667 444.833,306.333 444.5,306C 445.659,304.173 446.992,302.507 448.5,301C 447.833,300 447.167,299 446.5,298C 448.391,296.558 450.391,295.391 452.5,294.5 Z"/></g>
<g><path style="opacity:1" fill="#40372e" d="M 332.5,34.5 C 389.478,50.0829 430.312,84.7496 455,138.5C 461.097,152.29 465.264,166.623 467.5,181.5C 469.165,197.446 469.832,213.446 469.5,229.5C 468.643,236.43 466.977,243.263 464.5,250C 465.148,251.44 465.481,252.94 465.5,254.5C 462.765,268.372 458.432,281.705 452.5,294.5C 450.391,295.391 448.391,296.558 446.5,298C 447.167,299 447.833,300 448.5,301C 446.992,302.507 445.659,304.173 444.5,306C 444.833,306.333 445.167,306.667 445.5,307C 441.054,310.944 438.054,315.777 436.5,321.5C 435.808,320.975 435.308,320.308 435,319.5C 432.121,323.91 429.621,328.576 427.5,333.5C 425.052,334.803 423.552,336.803 423,339.5C 422.333,338.167 421.667,338.167 421,339.5C 418.414,345.706 414.248,350.54 408.5,354C 409.252,354.671 409.586,355.504 409.5,356.5C 392.629,373.781 372.629,386.281 349.5,394C 341.669,396.458 333.669,397.958 325.5,398.5C 325.918,397.778 326.584,397.278 327.5,397C 323.506,395.54 323.506,394.373 327.5,393.5C 327.5,393.167 327.5,392.833 327.5,392.5C 336.021,391.606 344.354,389.773 352.5,387C 397.343,367.824 429.176,335.657 448,290.5C 472.672,231.976 469.672,174.976 439,119.5C 398.58,58.2072 341.747,30.5405 268.5,36.5C 263.125,37.0068 257.792,37.8402 252.5,39C 207.231,49.4267 181.898,77.5934 176.5,123.5C 175.517,127.298 175.183,131.298 175.5,135.5C 177.167,135.5 178.833,135.5 180.5,135.5C 176.318,147.299 171.318,158.633 165.5,169.5C 164.534,171.396 164.201,173.396 164.5,175.5C 163.883,175.389 163.383,175.056 163,174.5C 161.677,178.625 160.177,182.625 158.5,186.5C 156.297,186.604 154.297,187.27 152.5,188.5C 158.321,175.522 164.155,162.522 170,149.5C 166.874,119.767 173.874,92.767 191,68.5C 202.944,54.7117 217.444,44.7117 234.5,38.5C 241.238,36.8328 247.904,35.1662 254.5,33.5C 254.833,34.1667 255.167,34.8333 255.5,35.5C 256.287,34.7579 256.953,33.9246 257.5,33C 273.423,30.4165 289.423,29.9165 305.5,31.5C 307.108,32.3184 308.775,32.9851 310.5,33.5C 311.696,33.1543 311.696,32.6543 310.5,32C 311.167,31.8333 311.833,31.6667 312.5,31.5C 315.089,33.1573 317.756,33.4906 320.5,32.5C 324.444,33.5558 328.444,34.2225 332.5,34.5 Z"/></g>
<g><path style="opacity:1" fill="#3f3527" d="M 277.5,113.5 C 278.5,113.5 279.5,113.5 280.5,113.5C 281.854,118.988 282.687,124.654 283,130.5C 283.744,128.1 284.577,125.767 285.5,123.5C 287.814,140.374 282.481,154.541 269.5,166C 244.304,182.542 221.97,179.375 202.5,156.5C 203.64,153.975 204.307,151.308 204.5,148.5C 211.138,159.623 220.805,166.79 233.5,170C 244.622,171.481 254.622,168.981 263.5,162.5C 274.673,154.491 280.34,143.491 280.5,129.5C 280.264,123.991 279.264,118.658 277.5,113.5 Z"/></g>
<g><path style="opacity:1" fill="#cfd35c" d="M 207.5,108.5 C 206.505,113.125 205.005,117.459 203,121.5C 202.114,129.614 202.614,137.614 204.5,145.5C 206.288,145.215 207.955,145.548 209.5,146.5C 210.5,148.167 211.833,149.5 213.5,150.5C 211.667,151.968 211.334,153.635 212.5,155.5C 214.641,152.981 216.641,152.981 218.5,155.5C 213.585,157.107 213.585,159.107 218.5,161.5C 219.308,161.192 219.975,160.692 220.5,160C 219.289,159.107 219.289,158.274 220.5,157.5C 222.577,158.988 223.577,160.988 223.5,163.5C 226.532,163.495 229.532,163.162 232.5,162.5C 234.903,160.794 237.57,159.461 240.5,158.5C 245.407,160.85 250.574,162.517 256,163.5C 257.716,163.252 259.216,162.585 260.5,161.5C 261.417,162.127 262.417,162.461 263.5,162.5C 254.622,168.981 244.622,171.481 233.5,170C 220.805,166.79 211.138,159.623 204.5,148.5C 199.421,136.572 199.255,124.572 204,112.5C 204.949,110.907 206.115,109.574 207.5,108.5 Z"/></g>
<g><path style="opacity:1" fill="#d1bfab" d="M 395.5,112.5 C 396.167,113.5 396.833,114.5 397.5,115.5C 398.785,125.729 398.785,135.729 397.5,145.5C 396.311,146.429 394.978,146.762 393.5,146.5C 397.984,135.415 398.651,124.082 395.5,112.5 Z"/></g>
<g><path style="opacity:1" fill="#343d3e" d="M 193.5,134.5 C 194.901,137.704 195.901,141.037 196.5,144.5C 193.983,139.307 190.317,134.974 185.5,131.5C 178.506,146.155 171.506,160.822 164.5,175.5C 164.201,173.396 164.534,171.396 165.5,169.5C 171.318,158.633 176.318,147.299 180.5,135.5C 181.147,132.208 183.147,130.208 186.5,129.5C 189.05,131.038 191.383,132.704 193.5,134.5 Z"/></g>
<g><path style="opacity:1" fill="#403229" d="M 395.5,112.5 C 398.651,124.082 397.984,135.415 393.5,146.5C 381.435,168.025 363.102,176.358 338.5,171.5C 327.156,167.334 318.323,160.001 312,149.5C 299.248,116.918 309.082,94.4183 341.5,82C 367.466,78.4737 385.466,88.6404 395.5,112.5 Z"/></g>
<g><path style="opacity:1" fill="#bf666d" d="M 334.5,162.5 C 337.794,162.259 340.794,163.092 343.5,165C 349.157,165.499 354.824,165.666 360.5,165.5C 351.371,168.794 342.704,167.794 334.5,162.5 Z"/></g>
<g><path style="opacity:1" fill="#ac5b63" d="M 385.5,105.5 C 391.639,113.783 393.805,123.116 392,133.5C 391.76,135.852 390.927,137.852 389.5,139.5C 391.173,133.262 391.673,126.929 391,120.5C 389.117,115.423 387.284,110.423 385.5,105.5 Z"/></g>
<g><path style="opacity:1" fill="#d86c76" d="M 330.5,93.5 C 328.83,96.0016 326.664,98.0016 324,99.5C 322.064,102.456 320.064,105.456 318,108.5C 316.985,112.894 315.818,117.228 314.5,121.5C 314.437,123.481 315.104,125.148 316.5,126.5C 314.738,130.002 314.238,133.668 315,137.5C 317.605,143.274 320.438,148.941 323.5,154.5C 317.019,148.693 313.186,141.36 312,132.5C 311.333,127.833 311.333,123.167 312,118.5C 314.145,110.708 317.979,103.875 323.5,98C 325.734,96.2502 328.068,94.7502 330.5,93.5 Z"/></g>
<g><path style="opacity:1" fill="#3d312a" d="M 274.5,99.5 C 280.856,106.215 284.522,114.215 285.5,123.5C 284.577,125.767 283.744,128.1 283,130.5C 282.687,124.654 281.854,118.988 280.5,113.5C 279.5,113.5 278.5,113.5 277.5,113.5C 277.162,111.146 276.662,108.813 276,106.5C 273.5,104.667 271.333,102.5 269.5,100C 271.134,99.5065 272.801,99.3398 274.5,99.5 Z"/></g>
<g><path style="opacity:1" fill="#433b22" d="M 264.5,91.5 C 268.603,93.2164 271.936,95.8831 274.5,99.5C 272.801,99.3398 271.134,99.5065 269.5,100C 271.333,102.5 273.5,104.667 276,106.5C 276.662,108.813 277.162,111.146 277.5,113.5C 265.311,93.4239 247.644,86.4239 224.5,92.5C 226.475,90.91 228.808,89.7433 231.5,89C 244.278,86.4194 255.778,88.9194 266,96.5C 266.182,94.6698 265.682,93.0031 264.5,91.5 Z"/></g>
<g><path style="opacity:1" fill="#d3d956" d="M 277.5,113.5 C 279.264,118.658 280.264,123.991 280.5,129.5C 280.34,143.491 274.673,154.491 263.5,162.5C 262.417,162.461 261.417,162.127 260.5,161.5C 259.216,162.585 257.716,163.252 256,163.5C 250.574,162.517 245.407,160.85 240.5,158.5C 237.57,159.461 234.903,160.794 232.5,162.5C 229.532,163.162 226.532,163.495 223.5,163.5C 223.577,160.988 222.577,158.988 220.5,157.5C 219.289,158.274 219.289,159.107 220.5,160C 219.975,160.692 219.308,161.192 218.5,161.5C 213.585,159.107 213.585,157.107 218.5,155.5C 216.641,152.981 214.641,152.981 212.5,155.5C 211.334,153.635 211.667,151.968 213.5,150.5C 211.833,149.5 210.5,148.167 209.5,146.5C 207.955,145.548 206.288,145.215 204.5,145.5C 202.614,137.614 202.114,129.614 203,121.5C 205.005,117.459 206.505,113.125 207.5,108.5C 211.886,101.779 217.553,96.4461 224.5,92.5C 247.644,86.4239 265.311,93.4239 277.5,113.5 Z"/></g>
<g><path style="opacity:1" fill="#ef6c7a" d="M 371.5,91.5 C 377.161,95.1605 381.827,99.8272 385.5,105.5C 387.284,110.423 389.117,115.423 391,120.5C 391.673,126.929 391.173,133.262 389.5,139.5C 384.849,153.821 375.182,162.487 360.5,165.5C 354.824,165.666 349.157,165.499 343.5,165C 340.794,163.092 337.794,162.259 334.5,162.5C 329.939,161.054 326.272,158.387 323.5,154.5C 320.438,148.941 317.605,143.274 315,137.5C 314.238,133.668 314.738,130.002 316.5,126.5C 315.104,125.148 314.437,123.481 314.5,121.5C 315.818,117.228 316.985,112.894 318,108.5C 320.064,105.456 322.064,102.456 324,99.5C 326.664,98.0016 328.83,96.0016 330.5,93.5C 332.349,92.407 334.016,91.0737 335.5,89.5C 347.736,86.3545 359.736,87.0211 371.5,91.5 Z"/></g>
<g><path style="opacity:1" fill="#403529" d="M 264.5,91.5 C 265.682,93.0031 266.182,94.6698 266,96.5C 255.778,88.9194 244.278,86.4194 231.5,89C 228.808,89.7433 226.475,90.91 224.5,92.5C 217.553,96.4461 211.886,101.779 207.5,108.5C 206.115,109.574 204.949,110.907 204,112.5C 199.255,124.572 199.421,136.572 204.5,148.5C 202.398,145.069 200.565,141.402 199,137.5C 198.667,132.167 198.333,126.833 198,121.5C 196.289,125.825 194.789,130.158 193.5,134.5C 191.383,132.704 189.05,131.038 186.5,129.5C 183.147,130.208 181.147,132.208 180.5,135.5C 178.833,135.5 177.167,135.5 175.5,135.5C 175.183,131.298 175.517,127.298 176.5,123.5C 175.513,136.708 177.013,137.375 181,125.5C 181.725,124.941 182.558,124.608 183.5,124.5C 187.533,125.599 191.033,127.599 194,130.5C 194.205,120.551 197.205,111.551 203,103.5C 220.287,82.8853 240.787,78.8853 264.5,91.5 Z"/></g>
<g><path style="opacity:1" fill="#51302d" d="M 371.5,91.5 C 359.736,87.0211 347.736,86.3545 335.5,89.5C 335.918,88.7784 336.584,88.2784 337.5,88C 337.167,87.6667 336.833,87.3333 336.5,87C 341.551,86.4899 346.551,85.6565 351.5,84.5C 354.982,84.6882 358.315,85.3548 361.5,86.5C 363.1,86.4493 364.6,86.1159 366,85.5C 366.617,86.4491 366.451,87.2825 365.5,88C 368.345,88.0082 370.345,89.1749 371.5,91.5 Z"/></g>
<g><path style="opacity:1" fill="#d2d65c" d="M 282.5,303.5 C 282.232,300.881 282.565,298.381 283.5,296C 282.207,295.51 280.873,295.343 279.5,295.5C 279.895,292.477 278.895,291.477 276.5,292.5C 275.5,291.833 274.5,291.167 273.5,290.5C 272.304,290.846 272.304,291.346 273.5,292C 268.625,293.669 267.292,297.003 269.5,302C 268.576,303.811 267.743,303.645 267,301.5C 263.469,308.888 260.803,316.555 259,324.5C 258.586,324.043 258.086,323.709 257.5,323.5C 255.322,333.145 256.655,342.145 261.5,350.5C 262.851,347.905 264.017,345.238 265,342.5C 265.667,345.167 265.667,347.833 265,350.5C 263.041,351.748 261.541,353.415 260.5,355.5C 258.743,351.365 256.91,347.365 255,343.5C 255.663,349.493 256.329,355.493 257,361.5C 255.107,364.804 253.274,368.138 251.5,371.5C 249.929,369.118 249.096,366.451 249,363.5C 247.257,368.357 245.757,373.357 244.5,378.5C 244.435,381.037 245.435,383.037 247.5,384.5C 246.619,385.971 245.286,386.804 243.5,387C 242.915,388.302 242.249,389.469 241.5,390.5C 242.167,385.833 242.833,381.167 243.5,376.5C 246.828,363.348 250.662,350.348 255,337.5C 255.703,335.071 255.537,332.738 254.5,330.5C 256.159,320.533 258.825,310.866 262.5,301.5C 264.017,301.489 265.184,300.823 266,299.5C 266.872,295.057 268.038,290.724 269.5,286.5C 274.807,289.001 280.473,290.334 286.5,290.5C 286.33,295.333 284.997,299.667 282.5,303.5 Z"/></g>
<g><path style="opacity:1" fill="#85776e" d="M 102.5,356.5 C 105.16,358.497 108.16,359.997 111.5,361C 112.022,361.561 112.355,362.228 112.5,363C 109.479,371.274 105.813,379.107 101.5,386.5C 96.806,383.65 91.806,381.65 86.5,380.5C 86.8782,378.079 87.5448,375.746 88.5,373.5C 91.6836,367.794 94.3503,361.794 96.5,355.5C 98.5,355.833 100.5,356.167 102.5,356.5 Z"/></g>
<g><path style="opacity:1" fill="#423831" d="M 164.5,352.5 C 167.437,358.041 170.104,363.708 172.5,369.5C 169.389,367.314 167.222,364.314 166,360.5C 164.989,361.337 163.822,361.67 162.5,361.5C 161.308,359.122 159.641,357.122 157.5,355.5C 152.246,356.794 147.579,359.127 143.5,362.5C 147.98,370.114 151.313,378.114 153.5,386.5C 151.227,387.271 150.894,388.604 152.5,390.5C 151.388,392.39 150.554,394.39 150,396.5C 149.667,396.167 149.333,395.833 149,395.5C 148.749,397.433 148.249,399.266 147.5,401C 146.551,401.617 145.718,401.451 145,400.5C 144.826,404.197 143.659,407.531 141.5,410.5C 140.669,417.811 140.169,425.144 140,432.5C 139.13,433.108 138.63,433.941 138.5,435C 139.619,437.802 141.619,439.302 144.5,439.5C 145.5,440.833 146.5,442.167 147.5,443.5C 152.23,452.707 159.563,458.874 169.5,462C 180.578,464.571 191.245,463.404 201.5,458.5C 204.331,457.921 206.664,456.588 208.5,454.5C 210.638,454.297 212.305,453.297 213.5,451.5C 214.72,452.711 215.887,452.711 217,451.5C 217.167,451.833 217.333,452.167 217.5,452.5C 216.624,453.251 215.624,453.751 214.5,454C 215.406,455.699 215.739,457.533 215.5,459.5C 214.71,458.391 214.21,457.058 214,455.5C 199.439,469.479 182.606,472.979 163.5,466C 139.342,452.878 131.175,433.045 139,406.5C 141.517,400.49 145.017,395.157 149.5,390.5C 145.59,381.681 141.423,373.014 137,364.5C 134.101,366.024 131.101,367.357 128,368.5C 125.106,367.303 122.273,365.97 119.5,364.5C 115.107,372.788 111.107,381.288 107.5,390C 123.137,408.329 125.303,428.162 114,449.5C 98.8995,469.068 79.7329,474.568 56.5,466C 53.5932,464.391 50.9266,462.558 48.5,460.5C 52.6081,459.856 56.6081,460.523 60.5,462.5C 60.5,463.833 60.5,465.167 60.5,466.5C 68.3626,466.545 76.1959,466.879 84,467.5C 86.4728,466.88 88.9728,466.214 91.5,465.5C 90.1451,464.325 90.3117,463.325 92,462.5C 92.3076,463.308 92.8076,463.975 93.5,464.5C 94.6956,464.154 94.6956,463.654 93.5,463C 95.2694,461.981 96.9361,461.814 98.5,462.5C 101.23,458.856 104.397,455.523 108,452.5C 109.43,449.647 110.263,446.647 110.5,443.5C 112.093,442.652 113.26,441.319 114,439.5C 115.936,434.709 116.769,429.709 116.5,424.5C 116.483,421.087 115.816,418.087 114.5,415.5C 112.312,407.456 108.312,400.456 102.5,394.5C 101.298,392.608 99.965,390.774 98.5,389C 86.7155,383.802 74.3822,382.469 61.5,385C 59.9069,385.949 58.5736,387.115 57.5,388.5C 54.7089,390.735 51.7089,392.735 48.5,394.5C 46.2362,395.219 43.9029,395.552 41.5,395.5C 41.3129,398.69 39.6462,400.69 36.5,401.5C 43.8441,388.181 55.1774,380.848 70.5,379.5C 74.8814,379.372 79.2147,379.705 83.5,380.5C 84.7199,377.309 85.5532,373.975 86,370.5C 87.417,371.078 88.2504,372.078 88.5,373.5C 87.5448,375.746 86.8782,378.079 86.5,380.5C 91.806,381.65 96.806,383.65 101.5,386.5C 105.813,379.107 109.479,371.274 112.5,363C 112.355,362.228 112.022,361.561 111.5,361C 108.16,359.997 105.16,358.497 102.5,356.5C 110.043,356.485 117.21,358.485 124,362.5C 125.44,361.852 126.94,361.519 128.5,361.5C 128.116,359.335 128.783,357.668 130.5,356.5C 131.452,358.045 131.785,359.712 131.5,361.5C 134.577,361.653 137.411,360.986 140,359.5C 141.107,359.585 142.107,359.919 143,360.5C 143.249,359.376 143.749,358.376 144.5,357.5C 147.517,356.995 149.851,355.495 151.5,353C 155.78,351.934 159.78,350.268 163.5,348C 169.882,347.497 169.882,348.33 163.5,350.5C 163.863,351.183 164.196,351.85 164.5,352.5 Z"/></g>
<g><path style="opacity:1" fill="#85776e" d="M 162.5,361.5 C 165.043,367.417 167.71,373.251 170.5,379C 164.505,381.003 158.838,383.503 153.5,386.5C 151.313,378.114 147.98,370.114 143.5,362.5C 147.579,359.127 152.246,356.794 157.5,355.5C 159.641,357.122 161.308,359.122 162.5,361.5 Z"/></g>
<g><path style="opacity:1" fill="#42322b" d="M 172.5,369.5 C 173.82,372.14 175.153,374.807 176.5,377.5C 192.534,377.271 206.034,382.937 217,394.5C 218.777,397.059 220.277,399.726 221.5,402.5C 221.603,405.219 221.269,407.885 220.5,410.5C 223.094,422.464 222.761,434.297 219.5,446C 219.943,447.825 220.277,449.658 220.5,451.5C 220.5,453.833 220.5,456.167 220.5,458.5C 221.434,460.239 221.434,461.905 220.5,463.5C 219.378,462.37 218.044,461.703 216.5,461.5C 215.662,461.158 215.328,460.492 215.5,459.5C 215.739,457.533 215.406,455.699 214.5,454C 215.624,453.751 216.624,453.251 217.5,452.5C 217.333,452.167 217.167,451.833 217,451.5C 215.887,452.711 214.72,452.711 213.5,451.5C 212.305,453.297 210.638,454.297 208.5,454.5C 210.795,451.703 213.295,449.036 216,446.5C 217.903,444.559 218.736,442.226 218.5,439.5C 219.895,434.084 220.895,428.584 221.5,423C 221.646,418.745 220.646,414.912 218.5,411.5C 215.379,400.375 208.379,392.709 197.5,388.5C 170.174,379.079 151.674,388.079 142,415.5C 140.847,423.758 141.681,431.758 144.5,439.5C 141.619,439.302 139.619,437.802 138.5,435C 138.63,433.941 139.13,433.108 140,432.5C 140.169,425.144 140.669,417.811 141.5,410.5C 143.659,407.531 144.826,404.197 145,400.5C 145.718,401.451 146.551,401.617 147.5,401C 148.249,399.266 148.749,397.433 149,395.5C 149.333,395.833 149.667,396.167 150,396.5C 150.554,394.39 151.388,392.39 152.5,390.5C 150.894,388.604 151.227,387.271 153.5,386.5C 158.838,383.503 164.505,381.003 170.5,379C 167.71,373.251 165.043,367.417 162.5,361.5C 163.822,361.67 164.989,361.337 166,360.5C 167.222,364.314 169.389,367.314 172.5,369.5 Z"/></g>
<g><path style="opacity:1" fill="#cfd25d" d="M 268.5,351.5 C 263.475,370.934 258.142,390.268 252.5,409.5C 250.526,414.067 248.859,418.734 247.5,423.5C 248.19,419.51 248.357,415.51 248,411.5C 247.692,412.308 247.192,412.975 246.5,413.5C 245.764,410.243 244.764,407.076 243.5,404C 243.833,403.5 244.167,403 244.5,402.5C 246.351,404.776 248.018,407.109 249.5,409.5C 250.886,406.1 250.219,403.1 247.5,400.5C 248.48,399.019 249.647,397.685 251,396.5C 251.333,397.5 251.667,398.5 252,399.5C 255.462,395.651 255.295,391.985 251.5,388.5C 252.596,385.614 254.596,383.614 257.5,382.5C 261.343,376.944 261.343,371.444 257.5,366C 260.409,362.626 262.576,358.793 264,354.5C 264.419,355.672 265.085,356.672 266,357.5C 266.002,354.949 266.836,352.949 268.5,351.5 Z"/></g>
<g><path style="opacity:1" fill="#5b3330" d="M 102.5,394.5 C 88.73,384.831 73.73,382.831 57.5,388.5C 58.5736,387.115 59.9069,385.949 61.5,385C 74.3822,382.469 86.7155,383.802 98.5,389C 99.965,390.774 101.298,392.608 102.5,394.5 Z"/></g>
<g><path style="opacity:1" fill="#c3c55e" d="M 243.5,376.5 C 242.833,381.167 242.167,385.833 241.5,390.5C 238.965,394.783 238.299,399.283 239.5,404C 238.552,404.483 237.552,404.649 236.5,404.5C 236.715,406.179 236.048,407.179 234.5,407.5C 236.874,396.948 239.874,386.614 243.5,376.5 Z"/></g>
<g><path style="opacity:1" fill="#746655" d="M 327.5,392.5 C 327.5,392.833 327.5,393.167 327.5,393.5C 318.677,394.649 310.011,394.649 301.5,393.5C 310.185,393.536 318.851,393.203 327.5,392.5 Z"/></g>
<g><path style="opacity:0.999" fill="#5a554f" d="M 269.5,391.5 C 272.518,391.335 275.518,391.502 278.5,392C 279.833,392.667 279.833,393.333 278.5,394C 281.329,395.509 284.162,395.675 287,394.5C 290.308,395.834 293.641,396.167 297,395.5C 299.56,397.827 302.393,398.161 305.5,396.5C 308.602,396.497 308.935,396.997 306.5,398C 312.491,398.499 318.491,398.666 324.5,398.5C 309.84,400.244 295.173,399.411 280.5,396C 276.532,394.962 272.865,393.462 269.5,391.5 Z"/></g>
<g><path style="opacity:1" fill="#4b302b" d="M 48.5,394.5 C 43.4012,400.355 39.5679,407.021 37,414.5C 36.5005,420.491 36.3338,426.491 36.5,432.5C 35.8826,432.389 35.3826,432.056 35,431.5C 34.8036,422.778 34.6369,414.111 34.5,405.5C 34.6596,403.847 35.3263,402.514 36.5,401.5C 39.6462,400.69 41.3129,398.69 41.5,395.5C 43.9029,395.552 46.2362,395.219 48.5,394.5 Z"/></g>
<g><path style="opacity:1" fill="#d3d956" d="M 282.5,303.5 C 278.206,319.661 273.539,335.661 268.5,351.5C 266.836,352.949 266.002,354.949 266,357.5C 265.085,356.672 264.419,355.672 264,354.5C 262.576,358.793 260.409,362.626 257.5,366C 261.343,371.444 261.343,376.944 257.5,382.5C 254.596,383.614 252.596,385.614 251.5,388.5C 255.295,391.985 255.462,395.651 252,399.5C 251.667,398.5 251.333,397.5 251,396.5C 249.647,397.685 248.48,399.019 247.5,400.5C 250.219,403.1 250.886,406.1 249.5,409.5C 248.018,407.109 246.351,404.776 244.5,402.5C 244.167,403 243.833,403.5 243.5,404C 244.764,407.076 245.764,410.243 246.5,413.5C 247.192,412.975 247.692,412.308 248,411.5C 248.357,415.51 248.19,419.51 247.5,423.5C 245.627,429.784 243.961,436.117 242.5,442.5C 240.603,447.687 238.77,453.021 237,458.5C 236.003,460.323 234.836,461.99 233.5,463.5C 230.813,463.664 228.146,463.497 225.5,463C 223.503,461.807 221.836,460.307 220.5,458.5C 220.5,456.167 220.5,453.833 220.5,451.5C 221.795,449.021 222.795,446.354 223.5,443.5C 225.61,439.498 226.943,435.165 227.5,430.5C 228.858,422.433 231.192,414.766 234.5,407.5C 236.048,407.179 236.715,406.179 236.5,404.5C 237.552,404.649 238.552,404.483 239.5,404C 238.299,399.283 238.965,394.783 241.5,390.5C 242.249,389.469 242.915,388.302 243.5,387C 245.286,386.804 246.619,385.971 247.5,384.5C 245.435,383.037 244.435,381.037 244.5,378.5C 245.757,373.357 247.257,368.357 249,363.5C 249.096,366.451 249.929,369.118 251.5,371.5C 253.274,368.138 255.107,364.804 257,361.5C 256.329,355.493 255.663,349.493 255,343.5C 256.91,347.365 258.743,351.365 260.5,355.5C 261.541,353.415 263.041,351.748 265,350.5C 265.667,347.833 265.667,345.167 265,342.5C 264.017,345.238 262.851,347.905 261.5,350.5C 256.655,342.145 255.322,333.145 257.5,323.5C 258.086,323.709 258.586,324.043 259,324.5C 260.803,316.555 263.469,308.888 267,301.5C 267.743,303.645 268.576,303.811 269.5,302C 267.292,297.003 268.625,293.669 273.5,292C 272.304,291.346 272.304,290.846 273.5,290.5C 274.5,291.167 275.5,291.833 276.5,292.5C 278.895,291.477 279.895,292.477 279.5,295.5C 280.873,295.343 282.207,295.51 283.5,296C 282.565,298.381 282.232,300.881 282.5,303.5 Z"/></g>
<g><path style="opacity:1" fill="#ea6c7a" d="M 102.5,394.5 C 108.312,400.456 112.312,407.456 114.5,415.5C 115.447,425.223 114.113,434.556 110.5,443.5C 99.9553,459.762 84.9553,466.262 65.5,463C 60.1679,461.001 55.1679,458.501 50.5,455.5C 44.0169,448.854 39.3503,441.187 36.5,432.5C 36.3338,426.491 36.5005,420.491 37,414.5C 39.5679,407.021 43.4012,400.355 48.5,394.5C 51.7089,392.735 54.7089,390.735 57.5,388.5C 73.73,382.831 88.73,384.831 102.5,394.5 Z M 83.5,442.5 C 77.697,444.032 72.0304,443.699 66.5,441.5C 56.2727,434.426 53.7727,425.093 59,413.5C 67.5261,403.455 77.3594,401.955 88.5,409C 99.0569,422.052 97.3903,433.219 83.5,442.5 Z"/></g>
<g><path style="opacity:1" fill="#53312c" d="M 90.5,404.5 C 87.2375,402.67 83.7375,401.337 80,400.5C 77.5303,400.34 75.3636,401.007 73.5,402.5C 72.6721,401.585 71.6721,400.919 70.5,400.5C 68.7951,401.545 67.2951,402.878 66,404.5C 64.6439,403.62 63.1439,403.286 61.5,403.5C 64.7335,399.805 68.9001,398.138 74,398.5C 77.8686,398.728 81.7019,399.228 85.5,400C 87.6605,400.996 89.3272,402.496 90.5,404.5 Z"/></g>
<g><path style="opacity:1" fill="#e06d79" d="M 197.5,388.5 C 188.272,386.633 178.939,386.133 169.5,387C 166.617,388.589 165.117,391.089 165,394.5C 164.107,393.919 163.107,393.585 162,393.5C 154.634,394.531 150.134,398.698 148.5,406C 150.102,407.581 151.102,409.081 151.5,410.5C 152.799,409.91 153.632,408.91 154,407.5C 154.689,408.357 155.522,409.023 156.5,409.5C 157.168,407.074 157.502,404.741 157.5,402.5C 158.695,404.297 160.362,405.297 162.5,405.5C 153.528,416.877 153.195,428.543 161.5,440.5C 159.263,439.551 156.929,438.884 154.5,438.5C 154.666,430.826 154.5,423.159 154,415.5C 153.131,412.237 151.797,411.904 150,414.5C 149.667,416.167 149.333,417.833 149,419.5C 147.648,417.406 147.148,415.073 147.5,412.5C 146.5,412.5 145.5,412.5 144.5,412.5C 145.672,420.156 145.672,427.822 144.5,435.5C 145.5,435.5 146.5,435.5 147.5,435.5C 147.125,432.603 147.625,429.937 149,427.5C 149.429,431.744 150.596,435.744 152.5,439.5C 152.192,440.308 151.692,440.975 151,441.5C 150.51,440.207 150.343,438.873 150.5,437.5C 149.5,437.5 148.5,437.5 147.5,437.5C 147.5,439.5 147.5,441.5 147.5,443.5C 146.5,442.167 145.5,440.833 144.5,439.5C 141.681,431.758 140.847,423.758 142,415.5C 151.674,388.079 170.174,379.079 197.5,388.5 Z"/></g>
<g><path style="opacity:0.753" fill="#837d78" d="M 223.5,406.5 C 224.6,408.277 225.434,410.277 226,412.5C 226.566,410.277 227.4,408.277 228.5,406.5C 226.833,417.167 225.167,417.167 223.5,406.5 Z"/></g>
<g><path style="opacity:1" fill="#44352f" d="M 90.5,404.5 C 98.0937,408.635 101.76,415.135 101.5,424C 100.136,440.365 91.3027,448.865 75,449.5C 62.8323,449.081 54.8323,443.081 51,431.5C 49.7366,423.832 50.7366,416.499 54,409.5C 56.1057,406.882 58.6057,404.882 61.5,403.5C 63.1439,403.286 64.6439,403.62 66,404.5C 67.2951,402.878 68.7951,401.545 70.5,400.5C 71.6721,400.919 72.6721,401.585 73.5,402.5C 75.3636,401.007 77.5303,400.34 80,400.5C 83.7375,401.337 87.2375,402.67 90.5,404.5 Z M 83.5,442.5 C 77.697,444.032 72.0304,443.699 66.5,441.5C 56.2727,434.426 53.7727,425.093 59,413.5C 67.5261,403.455 77.3594,401.955 88.5,409C 99.0569,422.052 97.3903,433.219 83.5,442.5 Z"/></g>
<g><path style="opacity:1" fill="#473630" d="M 203.5,409.5 C 210.46,424.16 207.46,436.326 194.5,446C 182.071,452.03 171.071,450.197 161.5,440.5C 153.195,428.543 153.528,416.877 162.5,405.5C 165.198,402.483 168.531,400.483 172.5,399.5C 178.865,398.069 185.198,398.236 191.5,400C 195.95,402.619 199.95,405.786 203.5,409.5 Z M 188.5,442.5 C 183.833,443.833 179.167,443.833 174.5,442.5C 162.034,435.598 158.867,425.598 165,412.5C 173.303,403.681 182.803,402.181 193.5,408C 201.46,415.794 202.96,424.628 198,434.5C 195.228,437.783 192.061,440.45 188.5,442.5 Z"/></g>
<g><path style="opacity:1" fill="#ce6874" d="M 218.5,411.5 C 220.646,414.912 221.646,418.745 221.5,423C 220.895,428.584 219.895,434.084 218.5,439.5C 216.926,440.984 215.593,442.651 214.5,444.5C 217.975,433.839 219.308,422.839 218.5,411.5 Z"/></g>
<g><path style="opacity:1" fill="#453e1e" d="M 252.5,409.5 C 252.434,413.835 252.767,417.835 253.5,421.5C 251.61,422.424 250.11,423.757 249,425.5C 247.88,431.702 245.714,437.369 242.5,442.5C 243.961,436.117 245.627,429.784 247.5,423.5C 248.859,418.734 250.526,414.067 252.5,409.5 Z"/></g>
<g><path style="opacity:1" fill="#413932" d="M 263.5,390.5 C 256.931,415.441 249.431,440.107 241,464.5C 239.549,466.464 237.716,467.797 235.5,468.5C 231.833,468.5 228.167,468.5 224.5,468.5C 220.605,467.607 217.938,465.274 216.5,461.5C 218.044,461.703 219.378,462.37 220.5,463.5C 221.434,461.905 221.434,460.239 220.5,458.5C 221.836,460.307 223.503,461.807 225.5,463C 228.146,463.497 230.813,463.664 233.5,463.5C 235.017,463.489 236.184,462.823 237,461.5C 238.265,458.539 239.431,455.539 240.5,452.5C 241.025,451.808 241.692,451.308 242.5,451C 241.709,448.25 241.709,445.417 242.5,442.5C 245.714,437.369 247.88,431.702 249,425.5C 250.11,423.757 251.61,422.424 253.5,421.5C 252.767,417.835 252.434,413.835 252.5,409.5C 255.249,405.83 257.916,401.997 260.5,398C 260.095,397.055 259.428,396.388 258.5,396C 259.967,394.902 260.801,393.402 261,391.5C 261.333,392.167 261.667,392.833 262,393.5C 262.232,392.263 262.732,391.263 263.5,390.5 Z"/></g>
<g><path style="opacity:1" fill="#46403a" d="M 34.5,405.5 C 34.6369,414.111 34.8036,422.778 35,431.5C 35.3826,432.056 35.8826,432.389 36.5,432.5C 36.2756,436.179 35.9422,439.846 35.5,443.5C 37.4835,443.383 39.1502,444.05 40.5,445.5C 41.6131,448.492 42.9464,451.325 44.5,454C 46.5183,454.505 48.5183,455.005 50.5,455.5C 49.5525,456.978 48.2191,457.978 46.5,458.5C 35.5969,450.028 29.9302,438.695 29.5,424.5C 29.7924,417.677 31.4591,411.344 34.5,405.5 Z"/></g>
<g><path style="opacity:1" fill="#898843" d="M 227.5,430.5 C 226.943,435.165 225.61,439.498 223.5,443.5C 224.057,438.835 225.39,434.502 227.5,430.5 Z"/></g>
<g><path style="opacity:1" fill="#653534" d="M 114.5,415.5 C 115.816,418.087 116.483,421.087 116.5,424.5C 116.769,429.709 115.936,434.709 114,439.5C 113.26,441.319 112.093,442.652 110.5,443.5C 114.113,434.556 115.447,425.223 114.5,415.5 Z"/></g>
<g><path style="opacity:1" fill="#4a2e29" d="M 36.5,432.5 C 39.3503,441.187 44.0169,448.854 50.5,455.5C 48.5183,455.005 46.5183,454.505 44.5,454C 42.9464,451.325 41.6131,448.492 40.5,445.5C 39.1502,444.05 37.4835,443.383 35.5,443.5C 35.9422,439.846 36.2756,436.179 36.5,432.5 Z"/></g>
<g><path style="opacity:1" fill="#ec6c7a" d="M 197.5,388.5 C 208.379,392.709 215.379,400.375 218.5,411.5C 219.308,422.839 217.975,433.839 214.5,444.5C 212.241,447.938 209.741,451.271 207,454.5C 204.833,455.488 203,456.821 201.5,458.5C 191.245,463.404 180.578,464.571 169.5,462C 159.563,458.874 152.23,452.707 147.5,443.5C 147.5,441.5 147.5,439.5 147.5,437.5C 148.5,437.5 149.5,437.5 150.5,437.5C 150.343,438.873 150.51,440.207 151,441.5C 151.692,440.975 152.192,440.308 152.5,439.5C 150.596,435.744 149.429,431.744 149,427.5C 147.625,429.937 147.125,432.603 147.5,435.5C 146.5,435.5 145.5,435.5 144.5,435.5C 145.672,427.822 145.672,420.156 144.5,412.5C 145.5,412.5 146.5,412.5 147.5,412.5C 147.148,415.073 147.648,417.406 149,419.5C 149.333,417.833 149.667,416.167 150,414.5C 151.797,411.904 153.131,412.237 154,415.5C 154.5,423.159 154.666,430.826 154.5,438.5C 156.929,438.884 159.263,439.551 161.5,440.5C 171.071,450.197 182.071,452.03 194.5,446C 207.46,436.326 210.46,424.16 203.5,409.5C 201.125,405.612 198.125,402.112 194.5,399C 190.304,397.434 185.97,396.601 181.5,396.5C 178.056,396.555 175.056,397.555 172.5,399.5C 168.531,400.483 165.198,402.483 162.5,405.5C 160.362,405.297 158.695,404.297 157.5,402.5C 157.502,404.741 157.168,407.074 156.5,409.5C 155.522,409.023 154.689,408.357 154,407.5C 153.632,408.91 152.799,409.91 151.5,410.5C 151.102,409.081 150.102,407.581 148.5,406C 150.134,398.698 154.634,394.531 162,393.5C 163.107,393.585 164.107,393.919 165,394.5C 165.117,391.089 166.617,388.589 169.5,387C 178.939,386.133 188.272,386.633 197.5,388.5 Z"/></g>
<g><path style="opacity:1" fill="#c7656f" d="M 203.5,409.5 C 199.95,405.786 195.95,402.619 191.5,400C 185.198,398.236 178.865,398.069 172.5,399.5C 175.056,397.555 178.056,396.555 181.5,396.5C 185.97,396.601 190.304,397.434 194.5,399C 198.125,402.112 201.125,405.612 203.5,409.5 Z"/></g>
<g><path style="opacity:0.894" fill="#86807c" d="M 66.5,441.5 C 72.0304,443.699 77.697,444.032 83.5,442.5C 83.3893,443.117 83.056,443.617 82.5,444C 78.1667,444.667 73.8333,444.667 69.5,444C 67.8807,443.764 66.8807,442.931 66.5,441.5 Z"/></g>
<g><path style="opacity:0.729" fill="#7d7872" d="M 174.5,442.5 C 179.167,443.833 183.833,443.833 188.5,442.5C 183.833,445.167 179.167,445.167 174.5,442.5 Z"/></g>
<g><path style="opacity:1" fill="#575324" d="M 242.5,442.5 C 241.709,445.417 241.709,448.25 242.5,451C 241.692,451.308 241.025,451.808 240.5,452.5C 239.431,455.539 238.265,458.539 237,461.5C 236.184,462.823 235.017,463.489 233.5,463.5C 234.836,461.99 236.003,460.323 237,458.5C 238.77,453.021 240.603,447.687 242.5,442.5 Z"/></g>
<g><path style="opacity:1" fill="#5c302f" d="M 218.5,439.5 C 218.736,442.226 217.903,444.559 216,446.5C 213.295,449.036 210.795,451.703 208.5,454.5C 206.664,456.588 204.331,457.921 201.5,458.5C 203,456.821 204.833,455.488 207,454.5C 209.741,451.271 212.241,447.938 214.5,444.5C 215.593,442.651 216.926,440.984 218.5,439.5 Z"/></g>
<g><path style="opacity:1" fill="#423029" d="M 110.5,443.5 C 110.263,446.647 109.43,449.647 108,452.5C 104.397,455.523 101.23,458.856 98.5,462.5C 96.9361,461.814 95.2694,461.981 93.5,463C 94.6956,463.654 94.6956,464.154 93.5,464.5C 92.8076,463.975 92.3076,463.308 92,462.5C 90.3117,463.325 90.1451,464.325 91.5,465.5C 88.9728,466.214 86.4728,466.88 84,467.5C 76.1959,466.879 68.3626,466.545 60.5,466.5C 60.5,465.167 60.5,463.833 60.5,462.5C 56.6081,460.523 52.6081,459.856 48.5,460.5C 47.5,460.167 46.8333,459.5 46.5,458.5C 48.2191,457.978 49.5525,456.978 50.5,455.5C 55.1679,458.501 60.1679,461.001 65.5,463C 84.9553,466.262 99.9553,459.762 110.5,443.5 Z"/></g>
<g><path style="opacity:0.898" fill="#716f68" d="M 224.5,468.5 C 228.167,468.5 231.833,468.5 235.5,468.5C 231.808,471.011 228.142,471.011 224.5,468.5 Z"/></g>
</svg>
